<?xml version="1.0" standalone="no"?>
<!DOCTYPE svg PUBLIC "-//W3C//DTD SVG 20010904//EN"
 "http://www.w3.org/TR/2001/REC-SVG-20010904/DTD/svg10.dtd">
<svg version="1.0" xmlns="http://www.w3.org/2000/svg"
 width="200.000000pt" height="200.000000pt" viewBox="0 0 200.000000 200.000000"
 preserveAspectRatio="xMidYMid meet">
<metadata>
Created by potrace 1.10, written by Peter Selinger 2001-2011
</metadata>
<g transform="translate(0.000000,200.000000) scale(0.100000,-0.100000)"
fill="#000000" stroke="none">
<path d="M858 1910 c-91 -15 -241 -69 -320 -115 -301 -178 -475 -503 -454
-850 25 -420 321 -761 736 -847 120 -25 295 -20 415 11 175 46 357 162 475
303 73 88 153 245 181 353 31 121 36 295 11 415 -71 346 -330 621 -667 710
-91 24 -287 34 -377 20z m272 -35 c207 -31 391 -129 528 -281 364 -403 282
-1036 -171 -1334 -328 -216 -754 -191 -1057 61 -123 102 -231 265 -278 419
-28 91 -45 240 -37 319 44 436 347 758 773 820 87 13 138 12 242 -4z"/>
<path d="M927 1822 c-23 -25 -21 -52 12 -166 28 -96 40 -116 71 -116 37 0 52
38 80 197 17 95 11 103 -80 103 -52 0 -71 -4 -83 -18z m117 -82 c-2 -70 -21
-143 -37 -137 -7 2 -23 40 -36 85 -28 96 -22 115 38 110 l36 -3 -1 -55z"/>
<path d="M715 1768 c-58 -35 -67 -46 -55 -67 18 -34 182 -191 199 -191 11 0
28 8 39 18 l21 17 -39 115 c-53 153 -71 165 -165 108z m113 -80 c32 -82 38
-118 20 -118 -17 0 -138 122 -138 139 0 15 51 41 75 38 14 -1 27 -19 43 -59z"/>
<path d="M1180 1780 c-10 -10 -35 -68 -54 -127 l-34 -108 20 -17 c11 -10 28
-18 37 -18 24 0 213 194 206 212 -7 16 -116 78 -139 78 -9 0 -25 -9 -36 -20z
m84 -41 c41 -19 38 -36 -21 -99 -58 -63 -88 -86 -96 -73 -6 10 41 153 55 171
13 15 30 15 62 1z"/>
<path d="M507 1632 c-26 -26 -47 -53 -47 -60 0 -13 195 -146 231 -157 15 -5
28 0 45 17 l24 23 -54 88 c-97 160 -119 170 -199 89z m124 -44 c29 -40 69
-111 69 -122 0 -10 -35 8 -107 53 -40 25 -73 50 -73 55 0 17 43 56 62 56 10 0
32 -19 49 -42z"/>
<path d="M1378 1657 c-36 -40 -127 -198 -122 -211 3 -7 15 -19 28 -26 19 -10
29 -9 57 5 63 32 209 137 209 150 0 7 -22 33 -50 59 -56 52 -90 59 -122 23z
m91 -51 c13 -14 20 -30 16 -36 -15 -24 -159 -110 -169 -100 -5 5 4 30 24 62
65 104 89 117 129 74z"/>
<path d="M373 1523 c-42 -42 -75 -94 -69 -108 7 -19 222 -125 252 -125 21 0
54 28 54 46 0 6 -37 53 -83 105 -89 101 -119 117 -154 82z m116 -99 c89 -97
81 -106 -39 -48 -103 49 -104 50 -79 85 11 16 29 29 39 29 10 0 46 -30 79 -66z"/>
<path d="M1524 1488 c-67 -72 -124 -143 -124 -155 0 -16 35 -43 56 -43 29 0
243 107 250 125 6 14 -27 66 -68 107 -31 31 -61 22 -114 -34z m105 -19 c12
-11 21 -28 19 -37 -5 -26 -188 -109 -188 -85 0 18 113 143 130 143 9 0 26 -9
39 -21z"/>
<path d="M251 1333 c-26 -22 -51 -127 -35 -143 16 -16 254 -33 286 -21 15 6
27 20 30 35 5 23 -2 30 -56 60 -165 91 -189 98 -225 69z m151 -75 c56 -30 72
-47 46 -49 -49 -3 -154 4 -174 11 -20 8 -22 13 -14 41 17 57 31 56 142 -3z"/>
<path d="M1585 1291 c-98 -51 -110 -60 -107 -82 6 -39 19 -44 115 -42 136 3
197 12 204 30 10 25 -19 123 -41 139 -33 23 -55 17 -171 -45z m153 -3 c7 -7
12 -24 12 -39 0 -33 -17 -39 -129 -39 -96 0 -96 3 0 55 68 37 98 42 117 23z"/>
<path d="M692 1313 c-7 -3 -19 -17 -27 -33 l-14 -28 104 -86 c98 -82 156 -130
245 -201 31 -24 297 -248 362 -303 15 -13 20 -13 43 2 14 9 25 25 25 36 0 20
-74 87 -266 242 -50 40 -172 142 -272 226 -99 83 -182 152 -184 151 -2 0 -9
-3 -16 -6z"/>
<path d="M1162 1210 c-84 -60 -153 -112 -153 -117 0 -4 6 -12 14 -17 11 -7 51
18 153 93 77 57 146 107 154 111 13 8 13 10 0 23 -13 13 -33 2 -168 -93z"/>
<path d="M1220 1149 c-74 -60 -136 -112 -137 -116 -2 -5 6 -14 17 -21 19 -11
33 -2 155 104 107 93 133 120 124 130 -6 8 -14 14 -18 13 -3 0 -67 -50 -141
-110z"/>
<path d="M211 1113 c-18 -12 -21 -25 -21 -77 0 -91 5 -93 137 -62 155 37 165
42 161 80 -3 30 -4 31 -89 47 -144 27 -166 28 -188 12z m130 -45 c42 -6 68
-15 66 -22 -4 -13 -146 -48 -164 -41 -14 5 -18 57 -6 68 9 9 23 9 104 -5z"/>
<path d="M1650 1103 c-111 -16 -130 -24 -130 -54 0 -27 33 -44 143 -74 134
-36 140 -35 149 40 6 56 5 62 -18 83 -14 12 -28 21 -32 21 -4 -1 -54 -8 -112
-16z m118 -70 c3 -29 0 -33 -21 -33 -29 0 -129 29 -141 40 -13 13 64 29 124
26 32 -1 35 -4 38 -33z"/>
<path d="M797 951 c-59 -43 -117 -87 -128 -97 -32 -28 -49 -77 -59 -162 -9
-86 -32 -117 -76 -106 -28 7 -109 -47 -117 -78 -4 -14 -13 -18 -33 -16 -37 4
-41 -17 -6 -31 27 -11 34 -9 93 32 35 24 69 42 76 40 6 -2 27 3 47 11 27 11
42 27 56 58 11 24 20 51 20 62 0 10 18 38 40 62 30 33 40 52 40 78 0 31 9 41
95 111 91 74 95 79 79 96 -10 11 -18 19 -18 19 -1 0 -49 -36 -109 -79z m-87
-167 c11 -12 10 -18 -3 -32 -16 -15 -18 -15 -34 0 -13 14 -14 20 -3 32 7 9 16
16 20 16 4 0 13 -7 20 -16z"/>
<path d="M877 877 c-75 -58 -108 -90 -112 -109 -4 -16 -16 -35 -28 -43 -27
-19 -18 -27 20 -19 19 4 77 46 152 111 67 58 121 106 119 107 -2 1 -12 9 -24
19 -20 17 -23 15 -127 -66z"/>
<path d="M1461 773 c-20 -24 -27 -40 -20 -44 17 -10 1 -67 -22 -80 -11 -6 -30
-9 -42 -7 -23 3 -87 -57 -87 -83 0 -18 23 -79 30 -79 3 0 14 13 25 29 11 16
71 88 133 160 61 72 112 133 112 136 0 3 -22 5 -49 5 -45 0 -52 -3 -80 -37z"/>
<path d="M1538 717 c-36 -45 -99 -120 -139 -166 l-73 -85 55 -48 c30 -26 57
-48 60 -48 5 0 188 214 263 309 19 23 19 24 -1 40 -12 9 -38 30 -60 48 l-39
31 -66 -81z m116 -14 c7 -17 6 -18 -119 -166 -49 -59 -94 -107 -99 -107 -14 0
-46 31 -46 46 0 7 47 69 105 138 100 118 107 124 130 114 13 -6 26 -17 29 -25z"/>
<path d="M495 756 c-32 -14 -55 -51 -55 -89 0 -15 -19 -35 -60 -65 -44 -32
-60 -50 -60 -67 0 -13 4 -26 8 -29 10 -6 34 8 31 20 -5 26 2 35 21 29 15 -5
33 3 64 29 37 30 44 41 43 70 -1 49 18 68 67 64 36 -2 40 0 47 25 7 26 6 27
-34 27 -23 -1 -56 -7 -72 -14z"/>
<path d="M1036 615 c19 -47 18 -88 -5 -116 -35 -43 -67 -4 -70 86 l-2 40 -19
-23 c-27 -33 -35 -86 -19 -134 21 -65 -22 -106 -57 -53 -14 22 -16 32 -7 56
15 38 1 37 -31 -2 -29 -34 -31 -46 -15 -104 26 -97 103 -150 205 -143 52 3 70
9 101 34 46 37 83 106 83 154 l-1 35 -13 -31 c-15 -33 -37 -47 -61 -38 -18 7
-19 29 -3 88 14 53 1 92 -50 148 -43 47 -55 48 -36 3z m39 -173 c-6 -43 -3
-52 20 -81 32 -37 28 -53 -17 -81 -62 -38 -152 -21 -197 36 -28 36 -26 44 8
44 31 0 81 47 81 76 0 10 7 13 23 9 15 -4 32 3 52 19 17 14 32 25 33 26 2 0 1
-22 -3 -48z"/>
</g>
</svg>
